<svg width="32" height="32" viewBox="0 0 32 32" fill="none" xmlns="http://www.w3.org/2000/svg">
<path fill-rule="evenodd" clip-rule="evenodd" d="M12.5 5C12.7761 5 13 5.22386 13 5.5C13 6.63568 12.5691 7.52418 11.8947 8.1237C11.2294 8.71505 10.3565 9 9.5 9C9.22386 9 9 8.77614 9 8.5C9 8.22386 9.22386 8 9.5 8C10.1435 8 10.7706 7.78495 11.2303 7.3763C11.6809 6.97582 12 6.36432 12 5.5C12 5.22386 12.2239 5 12.5 5Z" fill="url(#paint0_linear_982_417)"/>
<path fill-rule="evenodd" clip-rule="evenodd" d="M19.5 5C19.2239 5 19 5.22386 19 5.5C19 6.63568 19.4309 7.52418 20.1053 8.1237C20.7706 8.71505 21.6435 9 22.5 9C22.7761 9 23 8.77614 23 8.5C23 8.22386 22.7761 8 22.5 8C21.8565 8 21.2294 7.78495 20.7697 7.3763C20.3191 6.97582 20 6.36432 20 5.5C20 5.22386 19.7761 5 19.5 5Z" fill="url(#paint1_linear_982_417)"/>
<defs>
<linearGradient id="paint0_linear_982_417" x1="9.66665" y1="9.39987" x2="9.66665" y2="7.59992" gradientUnits="userSpaceOnUse">
<stop offset="0.0299084" stop-color="#524049"/>
<stop offset="1" stop-color="#4A2C42"/>
</linearGradient>
<linearGradient id="paint1_linear_982_417" x1="21" y1="7" x2="19.5" y2="8.5" gradientUnits="userSpaceOnUse">
<stop offset="0.0299084" stop-color="#524049"/>
<stop offset="1" stop-color="#4A2C42"/>
</linearGradient>
</defs>
</svg>
