<svg width="32" height="32" viewBox="0 0 32 32" fill="none" xmlns="http://www.w3.org/2000/svg">
<g clip-path="url(#clip0_978_4344)">
<path fill-rule="evenodd" clip-rule="evenodd" d="M19.5655 29.6586C18.4639 29.8806 17.275 29.9978 15.9989 29.9978C9.15963 29.9978 4.82741 26.6332 3 21.7934L3 16H6V19L19.5655 29.6586Z" fill="url(#paint0_radial_978_4344)"/>
<g filter="url(#filter0_i_978_4344)">
<path d="M1 23.881V18.5C1 17.6716 1.67157 17 2.5 17C3.32843 17 4 17.6716 4 18.5V19.1407C4 19.6776 4.26829 20.1789 4.71495 20.4766L9.22817 23.4854C11.2335 24.8223 11.6183 27.6119 10.0498 29.4418C8.44672 31.3122 5.55328 31.3122 3.95015 29.4418L2.37902 27.6089C1.48914 26.5707 1 25.2484 1 23.881Z" fill="url(#paint1_linear_978_4344)"/>
</g>
<path fill-rule="evenodd" clip-rule="evenodd" d="M12.5 29.6586C13.6016 29.8806 14.7905 29.9978 16.0666 29.9978C22.9059 29.9978 27.2381 26.6332 29.0655 21.7934L29.0655 16H26.0655V19L12.5 29.6586Z" fill="url(#paint2_radial_978_4344)"/>
<g filter="url(#filter1_i_978_4344)">
<path d="M31.0655 23.881V18.5C31.0655 17.6716 30.3939 17 29.5655 17C28.7371 17 28.0655 17.6716 28.0655 18.5V19.1407C28.0655 19.6776 27.7972 20.1789 27.3505 20.4766L22.8373 23.4854C20.832 24.8223 20.4471 27.6119 22.0156 29.4418C23.6188 31.3122 26.5122 31.3122 28.1153 29.4418L29.6865 27.6089C30.5763 26.5707 31.0655 25.2484 31.0655 23.881Z" fill="url(#paint3_linear_978_4344)"/>
</g>
<rect x="28" y="18" width="3" height="8" fill="url(#paint4_radial_978_4344)"/>
</g>
<defs>
<filter id="filter0_i_978_4344" x="1" y="16" width="11.0172" height="14.8446" filterUnits="userSpaceOnUse" color-interpolation-filters="sRGB">
<feFlood flood-opacity="0" result="BackgroundImageFix"/>
<feBlend mode="normal" in="SourceGraphic" in2="BackgroundImageFix" result="shape"/>
<feColorMatrix in="SourceAlpha" type="matrix" values="0 0 0 0 0 0 0 0 0 0 0 0 0 0 0 0 0 0 127 0" result="hardAlpha"/>
<feOffset dx="1" dy="-1"/>
<feGaussianBlur stdDeviation="1"/>
<feComposite in2="hardAlpha" operator="arithmetic" k2="-1" k3="1"/>
<feColorMatrix type="matrix" values="0 0 0 0 0 0 0 0 0 0 0 0 0 0 0 0 0 0 0.12 0"/>
<feBlend mode="normal" in2="shape" result="effect1_innerShadow_978_4344"/>
</filter>
<filter id="filter1_i_978_4344" x="21.0483" y="16" width="11.0172" height="14.8446" filterUnits="userSpaceOnUse" color-interpolation-filters="sRGB">
<feFlood flood-opacity="0" result="BackgroundImageFix"/>
<feBlend mode="normal" in="SourceGraphic" in2="BackgroundImageFix" result="shape"/>
<feColorMatrix in="SourceAlpha" type="matrix" values="0 0 0 0 0 0 0 0 0 0 0 0 0 0 0 0 0 0 127 0" result="hardAlpha"/>
<feOffset dx="1" dy="-1"/>
<feGaussianBlur stdDeviation="1"/>
<feComposite in2="hardAlpha" operator="arithmetic" k2="-1" k3="1"/>
<feColorMatrix type="matrix" values="0 0 0 0 0 0 0 0 0 0 0 0 0 0 0 0 0 0 0.12 0"/>
<feBlend mode="normal" in2="shape" result="effect1_innerShadow_978_4344"/>
</filter>
<radialGradient id="paint0_radial_978_4344" cx="0" cy="0" r="1" gradientUnits="userSpaceOnUse" gradientTransform="translate(0.929313 26.9915) rotate(-35.9558) scale(9.35264 11.7708)">
<stop offset="0.576138" stop-color="#392108"/>
<stop offset="1" stop-color="#C87928" stop-opacity="0"/>
</radialGradient>
<linearGradient id="paint1_linear_978_4344" x1="6.5" y1="23.5" x2="0.5" y2="28" gradientUnits="userSpaceOnUse">
<stop stop-color="#FFD556"/>
<stop offset="0.428749" stop-color="#FBA73B"/>
<stop offset="0.839536" stop-color="#F07D54"/>
</linearGradient>
<radialGradient id="paint2_radial_978_4344" cx="0" cy="0" r="1" gradientUnits="userSpaceOnUse" gradientTransform="translate(30.5 28.5) rotate(-136.975) scale(10.2591 16.5675)">
<stop offset="0.577326" stop-color="#985600"/>
<stop offset="1" stop-color="#C87928" stop-opacity="0"/>
</radialGradient>
<linearGradient id="paint3_linear_978_4344" x1="30" y1="23" x2="20.5" y2="32.5" gradientUnits="userSpaceOnUse">
<stop stop-color="#FFD556"/>
<stop offset="0.34463" stop-color="#FFCA40"/>
<stop offset="0.615109" stop-color="#FBA73B"/>
<stop offset="0.839536" stop-color="#FF6E2E"/>
</linearGradient>
<radialGradient id="paint4_radial_978_4344" cx="0" cy="0" r="1" gradientUnits="userSpaceOnUse" gradientTransform="translate(29.5 21.2) rotate(90) scale(3.3 1.54688)">
<stop stop-color="#FFE045"/>
<stop offset="1" stop-color="#FFDE44" stop-opacity="0"/>
</radialGradient>
<clipPath id="clip0_978_4344">
<rect width="32" height="32" fill="white"/>
</clipPath>
</defs>
</svg>
