<svg width="32" height="32" viewBox="0 0 32 32" fill="none" xmlns="http://www.w3.org/2000/svg">
<ellipse cx="8" cy="12.5" rx="5" ry="4.5" fill="url(#paint0_radial_152_513)"/>
<circle cx="19" cy="12" r="4" fill="url(#paint1_radial_152_513)"/>
<path d="M15 10.5C15 11.9239 14.3387 13.1933 13.3064 14.0179C12.5033 13.7485 11.4768 13.5 10.5 13.5C9.5232 13.5 8.49671 13.7485 7.69357 14.0179C6.66132 13.1933 6 11.9239 6 10.5C6 8.01472 8.01472 6 10.5 6C12.9853 6 15 8.01472 15 10.5Z" fill="white"/>
<path d="M26 10.5C26 11.9239 25.3387 13.1933 24.3064 14.0179C23.5033 13.7485 22.4768 13.5 21.5 13.5C20.5232 13.5 19.4967 13.7485 18.6936 14.0179C17.6613 13.1933 17 11.9239 17 10.5C17 8.01472 19.0147 6 21.5 6C23.9853 6 26 8.01472 26 10.5Z" fill="white"/>
<path d="M11 13C12.6569 13 14 11.6569 14 10C14 8.34315 12.6569 7 11 7C9.34315 7 8 8.34315 8 10C8 11.6569 9.34315 13 11 13Z" fill="url(#paint2_linear_152_513)"/>
<path d="M21 13C22.6569 13 24 11.6569 24 10C24 8.34315 22.6569 7 21 7C19.3431 7 18 8.34315 18 10C18 11.6569 19.3431 13 21 13Z" fill="url(#paint3_linear_152_513)"/>
<defs>
<radialGradient id="paint0_radial_152_513" cx="0" cy="0" r="1" gradientUnits="userSpaceOnUse" gradientTransform="translate(11.8889 9) rotate(138.013) scale(9.26805 4.77033)">
<stop stop-color="#392108"/>
<stop offset="1" stop-color="#C87928" stop-opacity="0"/>
</radialGradient>
<radialGradient id="paint1_radial_152_513" cx="0" cy="0" r="1" gradientUnits="userSpaceOnUse" gradientTransform="translate(22.1111 8.88889) rotate(135) scale(7.2282 4.08044)">
<stop stop-color="#392108"/>
<stop offset="1" stop-color="#C87928" stop-opacity="0"/>
</radialGradient>
<linearGradient id="paint2_linear_152_513" x1="22.1538" y1="7" x2="21" y2="13" gradientUnits="userSpaceOnUse">
<stop stop-color="#553B3E"/>
<stop offset="1" stop-color="#3D2432"/>
</linearGradient>
<linearGradient id="paint3_linear_152_513" x1="22.1538" y1="7" x2="21" y2="13" gradientUnits="userSpaceOnUse">
<stop stop-color="#553B3E"/>
<stop offset="1" stop-color="#3D2432"/>
</linearGradient>
</defs>
</svg>
