<svg width="32" height="32" viewBox="0 0 32 32" fill="none" xmlns="http://www.w3.org/2000/svg">
<path fill-rule="evenodd" clip-rule="evenodd" d="M6.92722 11.4485C5.20028 12.2363 4 13.978 4 16C4 18.7614 6.23858 21 9 21C11.7614 21 14 18.7614 14 16C14 14.1529 12.9984 12.5398 11.5088 11.674C10.9375 11.869 10.2679 12 9.5 12C8.46327 12 7.60568 11.7612 6.92722 11.4485Z" fill="url(#paint0_radial_966_3353)"/>
<circle cx="19.5" cy="16.5" r="4.5" fill="url(#paint1_radial_966_3353)"/>
<path fill-rule="evenodd" clip-rule="evenodd" d="M13.1107 10.8343C12.3699 11.3829 11.1664 12 9.5 12C8.55784 12 7.76363 11.8027 7.11736 11.5321C6.42175 12.3243 6 13.3629 6 14.5C6 16.9853 8.01472 19 10.5 19C12.9853 19 15 16.9853 15 14.5C15 12.9881 14.2543 11.6503 13.1107 10.8343ZM24.8826 11.5321C24.2364 11.8027 23.4422 12 22.5 12C20.8336 12 19.6301 11.3829 18.8893 10.8343C17.7457 11.6503 17 12.9881 17 14.5C17 16.9853 19.0147 19 21.5 19C23.9853 19 26 16.9853 26 14.5C26 13.3629 25.5782 12.3243 24.8826 11.5321Z" fill="white"/>
<path d="M12 17C13.1046 17 14 16.1046 14 15C14 13.8954 13.1046 13 12 13C10.8954 13 10 13.8954 10 15C10 16.1046 10.8954 17 12 17Z" fill="url(#paint2_linear_966_3353)"/>
<path d="M20 17C21.1046 17 22 16.1046 22 15C22 13.8954 21.1046 13 20 13C18.8954 13 18 13.8954 18 15C18 16.1046 18.8954 17 20 17Z" fill="url(#paint3_linear_966_3353)"/>
<defs>
<radialGradient id="paint0_radial_966_3353" cx="0" cy="0" r="1" gradientUnits="userSpaceOnUse" gradientTransform="translate(12.8889 12.1111) rotate(135) scale(9.74236 5.04232)">
<stop offset="0.330628" stop-color="#392108"/>
<stop offset="1" stop-color="#C87928" stop-opacity="0"/>
</radialGradient>
<radialGradient id="paint1_radial_966_3353" cx="0" cy="0" r="1" gradientUnits="userSpaceOnUse" gradientTransform="translate(23 13) rotate(135) scale(8.13173 4.59049)">
<stop offset="0.402076" stop-color="#392108"/>
<stop offset="1" stop-color="#C87928" stop-opacity="0"/>
</radialGradient>
<linearGradient id="paint2_linear_966_3353" x1="20.7692" y1="13" x2="20" y2="17" gradientUnits="userSpaceOnUse">
<stop stop-color="#553B3E"/>
<stop offset="1" stop-color="#3D2432"/>
</linearGradient>
<linearGradient id="paint3_linear_966_3353" x1="20.7692" y1="13" x2="20" y2="17" gradientUnits="userSpaceOnUse">
<stop stop-color="#553B3E"/>
<stop offset="1" stop-color="#3D2432"/>
</linearGradient>
</defs>
</svg>
