<svg width="32" height="32" viewBox="0 0 32 32" fill="none" xmlns="http://www.w3.org/2000/svg">
<path d="M13.9577 17.3801C14.6085 16.5997 15 15.5956 15 14.5C15 12.0147 12.9853 10 10.5 10C8.01472 10 6 12.0147 6 14.5C6 15.5956 6.39151 16.5997 7.04226 17.3801C7.86528 16.9672 9.10478 16.5 10.5 16.5C11.8952 16.5 13.1347 16.9672 13.9577 17.3801Z" fill="white"/>
<path d="M13.1984 17.0414C13.6958 16.5059 14 15.7885 14 15C14 13.3431 12.6569 12 11 12C9.34315 12 8 13.3431 8 15C8 15.6654 8.2166 16.2801 8.58314 16.7776C9.16357 16.6133 9.8129 16.5 10.5 16.5C11.5155 16.5 12.4484 16.7475 13.1984 17.0414Z" fill="url(#paint0_linear_271_612)"/>
<path fill-rule="evenodd" clip-rule="evenodd" d="M21 14C19.5452 14 19.0479 14.9314 18.9701 15.2425C18.8362 15.7783 18.2933 16.1041 17.7575 15.9701C17.2217 15.8362 16.8959 15.2933 17.0298 14.7575C17.2854 13.7352 18.4548 12 21 12C23.5452 12 24.7146 13.7352 24.9701 14.7575C25.1041 15.2933 24.7783 15.8362 24.2425 15.9701C23.7067 16.1041 23.1638 15.7783 23.0299 15.2425C22.9521 14.9314 22.4548 14 21 14Z" fill="url(#paint1_radial_271_612)"/>
<defs>
<linearGradient id="paint0_linear_271_612" x1="13.3077" y1="12" x2="11.4078" y2="16.4092" gradientUnits="userSpaceOnUse">
<stop stop-color="#553B3E"/>
<stop offset="1" stop-color="#3D2432"/>
</linearGradient>
<radialGradient id="paint1_radial_271_612" cx="0" cy="0" r="1" gradientUnits="userSpaceOnUse" gradientTransform="translate(21 15) rotate(90) scale(4 5.85926)">
<stop offset="0.337213" stop-color="#4D274B"/>
<stop offset="0.628228" stop-color="#514047"/>
<stop offset="1" stop-color="#4E2553"/>
<stop offset="1" stop-color="#4A342F"/>
</radialGradient>
</defs>
</svg>
