<svg width="32" height="32" viewBox="0 0 32 32" fill="none" xmlns="http://www.w3.org/2000/svg">
<path d="M15.9989 29.9978C25.3333 29.9978 29.9978 23.7303 29.9978 15.9989C29.9978 8.26751 25.3333 2 15.9989 2C6.66443 2 2 8.26751 2 15.9989C2 23.7303 6.66443 29.9978 15.9989 29.9978Z" fill="url(#paint0_radial_909_3504)"/>
<path d="M15.9989 29.9978C25.3333 29.9978 29.9978 23.7303 29.9978 15.9989C29.9978 8.26751 25.3333 2 15.9989 2C6.66443 2 2 8.26751 2 15.9989C2 23.7303 6.66443 29.9978 15.9989 29.9978Z" fill="url(#paint1_radial_909_3504)" fill-opacity="0.6"/>
<defs>
<radialGradient id="paint0_radial_909_3504" cx="0" cy="0" r="1" gradientUnits="userSpaceOnUse" gradientTransform="translate(21.5 10) rotate(94.5739) scale(25.0799)">
<stop stop-color="#9F70B8"/>
<stop offset="0.514303" stop-color="#8543A8"/>
<stop offset="0.71368" stop-color="#9344BB"/>
<stop offset="0.888763" stop-color="#6B438B"/>
</radialGradient>
<radialGradient id="paint1_radial_909_3504" cx="0" cy="0" r="1" gradientUnits="userSpaceOnUse" gradientTransform="translate(18 14) rotate(135) scale(45.2548)">
<stop offset="0.314853" stop-opacity="0"/>
<stop offset="1"/>
</radialGradient>
</defs>
</svg>
